<svg viewBox="0 0 200 200" xmlns="http://www.w3.org/2000/svg" xmlns:xlink="http://www.w3.org/1999/xlink"><linearGradient id="a" gradientUnits="userSpaceOnUse" x1="98.55" x2="103.62" y1="142.29" y2="-5.98"><stop offset="0" stop-color="#6edaf4"/><stop offset="1" stop-color="#847dfd"/></linearGradient><linearGradient id="b" gradientUnits="userSpaceOnUse" x1="123.28" x2="123.28" y1="126.94" y2="73.66"><stop offset="0" stop-color="#3863c2"/><stop offset="1" stop-color="#3b56cf"/></linearGradient><path d="m53.45 73.12v53.76l46.55 26.87 46.55-26.87v-53.76l-46.55-26.87z" fill="url(#a)"/><path d="m100 100 46.55 26.88v-53.76z" fill="url(#b)"/><path d="m53.45 126.88 46.55 26.87 46.55-26.87-46.55-26.88z" fill="#2c48b8"/><g fill="#fff"><path d="m131.11 98.25h-3.45v-3.45h-3.43v3.45h-3.44v3.42h3.44v3.45h3.43v-3.45h3.45z"/><path d="m144.01 98.25h-3.45v-3.45h-3.42v3.45h-3.45v3.42h3.45v3.45h3.42v-3.45h3.45z"/><path d="m112.67 107.31a14.64 14.64 0 1 1 0-14.62l12.42-7.17a29 29 0 1 0 0 29z"/></g></svg>