<svg viewBox="0 0 200 200" xmlns="http://www.w3.org/2000/svg" xmlns:xlink="http://www.w3.org/1999/xlink"><linearGradient id="a" gradientUnits="userSpaceOnUse" x1="85.93" x2="86.41" y1="46.86" y2="126.44"><stop offset="0" stop-color="#3876aa"/><stop offset="1" stop-color="#1854b2"/></linearGradient><linearGradient id="b" gradientUnits="userSpaceOnUse" x1="113.82" x2="113.82" y1="154.24" y2="73.24"><stop offset="0" stop-color="#eed82b"/><stop offset="1" stop-color="#ffc723"/></linearGradient><path d="m125.8 74.45v-9.58a18 18 0 0 0 -18-18.05h-15.58a18 18 0 0 0 -18 18.05v5.91h27.66v3.67h-37.29a18 18 0 0 0 -18.05 18v15.74a18 18 0 0 0 18.05 18h5.92v-27.78h55.32v-24zm-39.62-11.45a3.3 3.3 0 1 1 3.3-3.3 3.29 3.29 0 0 1 -3.3 3.3z" fill="url(#a)"/><path d="m135.41 73.72h-5.92v27.87h-55.32v24 9.58a18 18 0 0 0 18 18.05h15.53a18 18 0 0 0 18-18.05v-5.91h-27.53v-3.67h37.24a18 18 0 0 0 18.05-18v-15.82a18 18 0 0 0 -18.05-18.05zm-21.48 63.28a3.3 3.3 0 1 1 -3.29 3.3 3.3 3.3 0 0 1 3.29-3.3z" fill="url(#b)"/></svg>